<svg xmlns="http://www.w3.org/2000/svg" version="1.1" xmlns:xlink="http://www.w3.org/1999/xlink" xmlns:svgjs="http://svgjs.dev/svgjs" width="1500" height="1500" viewBox="0 0 1500 1500"><rect width="1500" height="1500" fill="#293040"></rect><g transform="matrix(0.6666666666666666,0,0,0.6666666666666666,249.50000000000006,249.50046545282987)"><svg viewBox="0 0 280 280" data-background-color="#293040" preserveAspectRatio="xMidYMid meet" height="1500" width="1500" xmlns="http://www.w3.org/2000/svg" xmlns:xlink="http://www.w3.org/1999/xlink"><g id="tight-bounds" transform="matrix(1,0,0,1,0.13999999999998636,0.14013032679235948)"><svg viewBox="0 0 279.72 279.72" height="279.72" width="279.72"><g><svg viewBox="0 0 279.72 279.72" height="279.72" width="279.72"><g><svg viewBox="0 0 279.72 279.72" height="279.72" width="279.72"><g id="textblocktransform"><svg viewBox="0 0 279.72 279.72" height="279.72" width="279.72" id="textblock"><g><svg viewBox="0 0 279.72 279.72" height="279.72" width="279.72"><g transform="matrix(1,0,0,1,57.446704652707865,57.446704652707865)"><svg viewBox="0 0 164.8265906945843 164.8265906945843" height="164.8265906945843" width="164.8265906945843"><g id="icon-0"><circle r="82" cx="82.41329534729215" cy="82.41329534729215" fill="#8f6449" data-fill-palette-color="accent"></circle><svg xmlns="http://www.w3.org/2000/svg" xmlns:xlink="http://www.w3.org/1999/xlink" version="1.1" x="24.723988604187646" y="24.72398860418764" viewBox="7.185713351722626 1.4258490012306215 85.60150330638056 97.16136765687257" enable-background="new 0 0 100 100" xml:space="preserve" height="115.378613486209" width="115.378613486209" class="icon-jxe-0" data-fill-palette-color="quaternary" id="jxe-0"><path d="M82.9 60.3L80.2 59C79.3 58.6 78.3 59 77.9 59.8L76.7 62.3C74.6 61.8 72.4 61.7 70.3 62L69.4 59.4C69.1 58.5 68.1 58 67.1 58.3L64.3 59.3C63.4 59.6 62.9 60.6 63.2 61.6L64.1 64.2C62.3 65.3 60.6 66.8 59.3 68.5L56.8 67.3C55.9 66.9 54.9 67.3 54.5 68.1L53.2 70.8C52.8 71.7 53.2 72.7 54 73.1L56.5 74.3C56 76.4 55.9 78.6 56.2 80.7L53.6 81.6C52.7 81.9 52.2 82.9 52.5 83.9L53.5 86.7C53.8 87.6 54.8 88.1 55.8 87.8L58.4 86.9C59.5 88.7 61 90.4 62.7 91.7L61.5 94.2C61.1 95.1 61.5 96.1 62.3 96.5L65 97.8C65.9 98.2 66.9 97.8 67.3 97L68.5 94.5C70.6 95 72.8 95.1 74.9 94.8L75.8 97.4C76.1 98.3 77.1 98.8 78.1 98.5L80.9 97.5C81.8 97.2 82.3 96.2 82 95.2L81.1 92.6C82.9 91.5 84.6 90 85.9 88.3L88.4 89.5C89.3 89.9 90.3 89.5 90.7 88.7L92 86C92.4 85.1 92 84.1 91.2 83.7L88.7 82.5C89.2 80.4 89.3 78.2 89 76.1L91.6 75.2C92.5 74.9 93 73.9 92.7 72.9L91.7 70.1C91.4 69.2 90.4 68.7 89.4 69L86.8 69.9C85.7 68.1 84.2 66.4 82.5 65.1L83.7 62.6C84.1 61.8 83.7 60.7 82.9 60.3M79.8 81.8C77.9 85.7 73.2 87.4 69.3 85.6S63.7 79 65.5 75C67.4 71.1 72.1 69.4 76 71.2 80 73.1 81.7 77.8 79.8 81.8M24.9 75.4C24.2 75.4 23.7 75.9 23.7 76.6V78.7C23.7 79.4 24.2 79.9 24.9 79.9H26.8C27.1 81.4 27.7 82.8 28.5 84L27.2 85.3C26.7 85.8 26.7 86.6 27.2 87L28.7 88.5C29.2 89 30 89 30.4 88.5L31.7 87.2C33 88.1 34.4 88.6 35.8 88.9V90.8C35.8 91.5 36.3 92 37 92H39.1C39.8 92 40.3 91.5 40.3 90.8V88.9C41.8 88.6 43.2 88 44.4 87.2L45.7 88.5C46.2 89 47 89 47.4 88.5L48.9 87C49.4 86.5 49.4 85.7 48.9 85.3L47.6 84C48.5 82.7 49 81.3 49.3 79.9H51.2C51.9 79.9 52.4 79.4 52.4 78.7V76.6C52.4 75.9 51.9 75.4 51.2 75.4H49.3C49 73.9 48.4 72.5 47.6 71.3L48.9 70C49.4 69.5 49.4 68.7 48.9 68.3L47.4 66.8C46.9 66.3 46.1 66.3 45.7 66.8L44.4 68.1C43.1 67.2 41.7 66.7 40.3 66.4V64.5C40.3 63.8 39.8 63.3 39.1 63.3H37C36.3 63.3 35.8 63.8 35.8 64.5V66.4C34.3 66.7 32.9 67.3 31.7 68.1L30.4 66.8C29.9 66.3 29.1 66.3 28.7 66.8L27.2 68.3C26.7 68.8 26.7 69.6 27.2 70L28.5 71.3C27.6 72.6 27.1 74 26.8 75.4zM34.3 73.8C36.4 71.7 39.9 71.7 42.1 73.8 44.2 75.9 44.2 79.4 42.1 81.6 40 83.7 36.5 83.7 34.3 81.6S32.1 76 34.3 73.8M7.4 42L9.1 46.2C9.7 47.6 11.3 48.2 12.6 47.7L16.5 46.1C18.4 48.9 20.8 51.3 23.5 53.1L21.9 57C21.3 58.4 22 60 23.4 60.5L27.6 62.2C29 62.8 30.6 62.1 31.1 60.7L32.7 56.8C35.9 57.4 39.3 57.5 42.6 56.8L44.2 60.7C44.8 62.1 46.4 62.7 47.7 62.2L51.9 60.5C53.3 59.9 53.9 58.3 53.4 57L51.8 53.1C54.6 51.2 57 48.8 58.8 46.1L62.7 47.7C64.1 48.3 65.7 47.6 66.2 46.2L68 42C68.6 40.6 67.9 39 66.5 38.5L62.6 36.9C63.2 33.7 63.3 30.3 62.6 27L66.5 25.4C67.9 24.8 68.5 23.2 68 21.9L66.3 17.7C65.7 16.3 64.1 15.7 62.8 16.2L58.9 17.8C57 15 54.6 12.6 51.9 10.8L53.5 7C54 5.6 53.4 4 52 3.4L47.8 1.7C46.4 1.1 44.8 1.8 44.3 3.2L42.7 7C39.5 6.4 36.1 6.3 32.8 7L31.2 3.1C30.6 1.7 29 1.1 27.7 1.6L23.5 3.3C22 4 21.4 5.6 22 6.9L23.6 10.8C20.8 12.7 18.4 15.1 16.6 17.8L12.7 16.2C11.3 15.6 9.7 16.3 9.2 17.7L7.5 21.9C6.9 23.3 7.6 24.9 9 25.4L12.9 27C12.3 30.2 12.2 33.6 12.9 36.9L9 38.5C7.5 39.1 6.8 40.7 7.4 42M30.6 14.9C40 11 50.8 15.5 54.7 24.9S54.1 45.1 44.7 49 24.5 48.4 20.6 39C16.8 29.6 21.2 18.8 30.6 14.9M30.9 39.6C31.1 39 31.2 38.3 31.4 37.7 31.6 37 31.8 36.9 32.5 37.2 33.6 37.8 34.9 38.1 36.1 38.3 36.9 38.4 37.7 38.3 38.5 38 39.9 37.4 40.1 35.7 38.9 34.7 38.5 34.4 38 34.1 37.5 33.9 36.3 33.4 34.9 32.9 33.8 32.2 31.9 31.1 30.7 29.5 30.8 27.2 31 24.6 32.4 22.9 34.9 22 35.9 21.6 35.9 21.7 35.9 20.6V19.5C35.9 18.7 36.1 18.6 36.8 18.6H37.5C39.2 18.6 39.2 18.6 39.2 20.3 39.2 21.5 39.2 21.5 40.4 21.7 41.3 21.8 42.2 22.1 43 22.5 43.5 22.7 43.6 23 43.5 23.5 43.3 24.2 43.1 24.9 42.9 25.7 42.7 26.4 42.5 26.5 41.8 26.2 40.5 25.6 39.1 25.3 37.7 25.4 37.3 25.4 37 25.5 36.6 25.6 35.4 26.1 35.2 27.5 36.2 28.4 36.7 28.8 37.3 29.1 38 29.4 39.1 29.9 40.2 30.3 41.2 30.9 44.5 32.7 45.4 36.9 43.1 39.8 42.3 40.8 41.2 41.5 39.9 41.9 39.3 42.1 39.1 42.3 39.1 42.9V44.6C39.1 45.1 38.8 45.4 38.3 45.4H36.5C36 45.4 35.7 45.1 35.7 44.6V43.3C35.7 42.4 35.7 42.3 34.8 42.2 33.7 42 32.6 41.8 31.5 41.3 30.8 40.7 30.7 40.5 30.9 39.6" fill="#293040" data-fill-palette-color="quaternary"></path></svg></g></svg></g><g id="text-0"><path d="M27.211 95.683v0l1.638 0.521c0 0 0.034 0.293 0.101 0.879 0.067 0.586 0.079 1.336 0.036 2.249-0.035 0.909-0.209 1.856-0.523 2.843v0c-0.491 1.546-1.212 2.552-2.164 3.018-0.954 0.472-2.24 0.451-3.858-0.063v0l-13.668-4.34-0.837 2.635-1.342-0.426-0.429-3.232-3.776-3.231 0.573-1.806 4.984 1.583 1.845-5.813 2.043 0.649-1.846 5.812 11.497 3.651c1.632 0.518 2.874 0.608 3.727 0.271 0.851-0.331 1.451-1.046 1.8-2.145v0c0.257-0.809 0.353-1.521 0.287-2.136-0.059-0.613-0.088-0.919-0.088-0.919z" fill="#dee0e4" data-fill-palette-color="primary"></path><path d="M43.041 68.481l1.452 0.861-3.259 5.495-2.482-0.81c0 0 0.021 0.262 0.065 0.785 0.049 0.527 0.069 1.196 0.06 2.009-0.005 0.807-0.093 1.658-0.263 2.553-0.166 0.889-0.464 1.695-0.893 2.42v0c-0.796 1.342-1.92 2.216-3.373 2.622-1.443 0.404-2.946 0.143-4.507-0.783v0c-0.689-0.408-1.258-0.91-1.707-1.506-0.446-0.601-0.716-1.432-0.81-2.491-0.1-1.063 0.031-2.481 0.394-4.256 0.353-1.773 0.986-4.03 1.897-6.772v0l-1.603-0.951c-2.44-1.447-4.345-1.016-5.715 1.294v0c-0.377 0.635-0.642 1.224-0.795 1.767-0.156 0.534-0.253 0.913-0.291 1.14v0l3.233 1.917-1.6 2.698c-0.201 0.338-0.453 0.614-0.756 0.828-0.297 0.217-0.677 0.188-1.141-0.086v0c-1.015-0.602-1.615-1.479-1.798-2.632-0.186-1.162-0.081-2.428 0.315-3.798 0.399-1.376 0.959-2.673 1.681-3.89v0c0.912-1.538 1.855-2.587 2.831-3.149 0.984-0.564 1.996-0.767 3.033-0.608 1.044 0.162 2.103 0.561 3.178 1.198v0l10.401 6.169c0.232 0.137 0.463 0.174 0.693 0.11 0.24-0.066 0.437-0.202 0.591-0.408v0zM37.443 73.251v0l-6.421-3.809c-0.574 1.915-0.945 3.488-1.114 4.721-0.169 1.232-0.188 2.212-0.058 2.939 0.136 0.731 0.372 1.3 0.709 1.708 0.339 0.402 0.738 0.739 1.194 1.01v0c0.766 0.454 1.617 0.63 2.553 0.526 0.939-0.109 1.67-0.603 2.191-1.481v0c0.296-0.499 0.511-1.065 0.647-1.699 0.145-0.636 0.234-1.254 0.267-1.852 0.037-0.604 0.052-1.096 0.046-1.478-0.009-0.391-0.014-0.586-0.014-0.585z" fill="#dee0e4" data-fill-palette-color="primary"></path><path d="M57.32 45.98v0c1.522 1.484 2.202 3.17 2.04 5.056-0.162 1.886-1.139 3.749-2.932 5.587v0c-0.925 0.949-1.877 1.727-2.855 2.335-0.974 0.603-1.676 0.997-2.109 1.183v0l-4.106-4.005 1.525-1.564 3 2.188c0.501-0.119 1.07-0.316 1.706-0.592 0.631-0.272 1.243-0.711 1.836-1.319v0c0.863-0.885 1.283-1.81 1.261-2.776-0.027-0.961-0.346-1.741-0.959-2.339v0c-0.815-0.795-1.717-1.106-2.706-0.932-0.984 0.178-2.258 0.556-3.823 1.131v0l-0.59 0.22c-1.633 0.606-3.029 0.926-4.191 0.961-1.161 0.034-2.207-0.402-3.136-1.308v0c-1.379-1.345-1.999-2.889-1.859-4.634 0.139-1.754 1.076-3.521 2.811-5.299v0c0.882-0.904 1.751-1.633 2.608-2.186 0.857-0.543 1.509-0.905 1.956-1.086v0l3.655 3.564-1.576 1.616-2.396-1.859c-0.39 0.054-0.869 0.223-1.436 0.508-0.577 0.285-1.1 0.668-1.567 1.148v0c-0.824 0.845-1.243 1.666-1.258 2.461-0.015 0.786 0.28 1.473 0.883 2.061v0c0.697 0.68 1.489 0.97 2.376 0.871 0.897-0.099 2.28-0.514 4.151-1.246v0c1.54-0.6 2.956-0.95 4.248-1.049 1.292-0.109 2.44 0.326 3.443 1.304z" fill="#dee0e4" data-fill-palette-color="primary"></path><path d="M88.549 30.535l0.876 1.443-5.903 3.585-0.876-1.442-8.825-4.137-2.062 1.252 3.655 6.018c0.308 0.507 0.733 0.621 1.274 0.341v0l1.648-0.856 0.877 1.442-8.381 5.091-0.876-1.443 1.741-1.202c0.498-0.351 0.592-0.78 0.284-1.288v0l-13.471-22.176-2.797 1.698-0.741-1.221 3.851-4.29 1.513-0.919 10.778 17.743 0.743-0.451 1.705-9.419c0.011-0.088-0.012-0.179-0.069-0.274v0c-0.147-0.242-0.354-0.298-0.622-0.167v0l-1.599 0.778-0.877-1.442 7.168-4.355 0.877 1.443-2.204 1.678-1.724 8.17 11.969 5.365z" fill="#dee0e4" data-fill-palette-color="primary"></path><path d="M161.1 19.852l-0.017 1.687-9.681-0.098 0.017-1.687 1.814-0.106c0.608-0.035 0.915-0.35 0.92-0.943v0l0.112-10.996c0.014-1.339-0.255-2.412-0.807-3.218-0.544-0.806-1.541-1.217-2.99-1.231v0c-0.711-0.007-1.496 0.099-2.354 0.317-0.851 0.212-1.607 0.491-2.265 0.837v0l-0.144 14.205c-0.006 0.594 0.291 0.914 0.891 0.962v0l1.811 0.142-0.018 1.688-9.463-0.096 0.017-1.687 1.813-0.106c0.608-0.035 0.915-0.35 0.921-0.944v0l0.114-11.275c0.012-1.222-0.267-2.219-0.839-2.99-0.565-0.772-1.538-1.165-2.919-1.179v0c-0.814-0.008-1.665 0.121-2.551 0.388-0.886 0.267-1.579 0.536-2.079 0.807v0l-0.143 14.164c-0.006 0.594 0.294 0.914 0.901 0.962v0l1.811 0.142-0.017 1.688-9.764-0.099 0.017-1.687 2.114-0.103c0.608-0.035 0.915-0.35 0.921-0.944v0l0.151-14.981-2.971-0.03 0.014-1.419 5.235-1.583 1.77 0.018-0.021 2.143c0.653-0.387 1.385-0.78 2.196-1.179 0.812-0.399 1.64-0.739 2.486-1.02 0.845-0.274 1.64-0.408 2.385-0.401v0c1.256 0.013 2.268 0.341 3.034 0.984 0.767 0.65 1.326 1.335 1.678 2.057v0c0.584-0.36 1.319-0.77 2.207-1.231 0.888-0.46 1.81-0.858 2.767-1.194 0.949-0.336 1.803-0.499 2.562-0.492v0c1.519 0.015 2.675 0.376 3.469 1.081 0.794 0.698 1.334 1.56 1.62 2.585 0.287 1.018 0.425 2.02 0.415 3.007v0l-0.121 11.948c-0.003 0.269 0.081 0.487 0.252 0.655 0.178 0.174 0.391 0.277 0.639 0.306v0z" fill="#dee0e4" data-fill-palette-color="primary"></path><path d="M190.9 28.795l-0.537 1.6-6.057-2.034 0.271-2.596c0 0-0.251 0.076-0.753 0.228-0.505 0.158-1.155 0.318-1.953 0.48-0.791 0.164-1.641 0.257-2.551 0.279-0.904 0.024-1.755-0.098-2.553-0.366v0c-1.479-0.497-2.569-1.413-3.271-2.748-0.698-1.327-0.758-2.85-0.18-4.571v0c0.255-0.759 0.626-1.421 1.114-1.985 0.495-0.562 1.25-1 2.266-1.314 1.018-0.321 2.433-0.49 4.245-0.508 1.807-0.026 4.147 0.118 7.019 0.435v0l0.593-1.767c0.903-2.689 0.082-4.462-2.463-5.316v0c-0.7-0.235-1.332-0.371-1.895-0.407-0.554-0.041-0.946-0.056-1.176-0.046v0l-1.196 3.563-2.974-0.999c-0.373-0.125-0.696-0.314-0.968-0.565-0.274-0.245-0.326-0.623-0.155-1.133v0c0.376-1.119 1.108-1.889 2.196-2.31 1.097-0.425 2.357-0.588 3.779-0.489 1.43 0.101 2.815 0.377 4.157 0.828v0c1.695 0.569 2.919 1.272 3.672 2.107 0.758 0.844 1.168 1.79 1.231 2.838 0.061 1.054-0.107 2.174-0.505 3.358v0l-3.85 11.465c-0.086 0.255-0.073 0.489 0.038 0.701 0.115 0.221 0.289 0.385 0.522 0.492v0zM185.062 24.323v0l2.377-7.077c-1.993-0.159-3.609-0.193-4.849-0.1-1.24 0.093-2.202 0.28-2.886 0.56-0.686 0.287-1.193 0.637-1.522 1.051-0.322 0.416-0.567 0.876-0.736 1.38v0c-0.283 0.844-0.277 1.713 0.02 2.607 0.304 0.896 0.94 1.506 1.908 1.831v0c0.55 0.185 1.149 0.277 1.797 0.276 0.653 0.008 1.275-0.034 1.867-0.127 0.598-0.09 1.083-0.179 1.454-0.265 0.38-0.091 0.57-0.136 0.57-0.137z" fill="#dee0e4" data-fill-palette-color="primary"></path><path d="M215.895 38.038v0c-1.132 1.8-2.637 2.818-4.515 3.056-1.878 0.238-3.904-0.327-6.078-1.694v0c-1.122-0.706-2.083-1.473-2.882-2.302-0.794-0.825-1.327-1.43-1.6-1.813v0l3.054-4.856 1.849 1.163-1.509 3.393c0.221 0.465 0.534 0.98 0.937 1.544 0.398 0.56 0.956 1.066 1.675 1.518v0c1.046 0.658 2.039 0.875 2.979 0.65 0.934-0.228 1.629-0.704 2.085-1.428v0c0.606-0.964 0.721-1.911 0.344-2.842-0.381-0.924-1.017-2.091-1.909-3.5v0l-0.339-0.531c-0.935-1.469-1.542-2.768-1.818-3.896-0.277-1.128-0.07-2.242 0.621-3.34v0c1.025-1.63 2.405-2.56 4.14-2.79 1.744-0.232 3.668 0.313 5.771 1.636v0c1.069 0.673 1.964 1.37 2.685 2.092 0.711 0.724 1.201 1.286 1.472 1.684v0l-2.718 4.321-1.91-1.202 1.315-2.732c-0.134-0.37-0.401-0.802-0.799-1.297-0.4-0.505-0.884-0.935-1.451-1.292v0c-0.999-0.628-1.889-0.866-2.67-0.713-0.772 0.151-1.382 0.583-1.83 1.295v0c-0.518 0.824-0.636 1.659-0.353 2.506 0.285 0.856 0.981 2.122 2.089 3.797v0c0.91 1.38 1.549 2.691 1.917 3.933 0.378 1.241 0.194 2.454-0.552 3.64z" fill="#dee0e4" data-fill-palette-color="primary"></path><path d="M233.103 58.541v0l-1.209 1.222c0 0-0.276-0.103-0.829-0.31-0.553-0.207-1.226-0.537-2.019-0.992-0.793-0.445-1.558-1.031-2.294-1.759v0c-1.153-1.141-1.721-2.241-1.702-3.299 0.014-1.064 0.617-2.2 1.811-3.408v0l10.083-10.197-1.966-1.944 0.99-1.001 3.074 1.088 4.595-1.892 1.347 1.332-3.676 3.718 4.336 4.288-1.507 1.524-4.336-4.288-8.482 8.577c-1.204 1.217-1.849 2.283-1.937 3.196-0.093 0.908 0.271 1.768 1.091 2.578v0c0.604 0.597 1.194 1.006 1.771 1.228 0.572 0.226 0.859 0.339 0.859 0.339z" fill="#dee0e4" data-fill-palette-color="primary"></path><path d="M252.022 82.006l-2.216 1.417c-1.279-0.616-2.515-1.37-3.708-2.262-1.191-0.902-2.179-1.966-2.964-3.193v0c-0.941-1.471-1.494-3.06-1.658-4.765-0.165-1.705 0.169-3.381 1-5.027 0.832-1.646 2.259-3.116 4.283-4.411v0c1.896-1.212 3.782-1.902 5.658-2.07 1.882-0.171 3.622 0.142 5.221 0.938 1.599 0.796 2.925 2.017 3.977 3.664v0c1.447 2.262 1.832 4.408 1.156 6.438-0.676 2.03-2.099 3.739-4.268 5.126v0c-0.116 0.074-0.273 0.175-0.471 0.302-0.192 0.123-0.38 0.226-0.563 0.311v0l-7.537-11.785c-0.925 0.591-1.782 1.275-2.572 2.051-0.792 0.785-1.414 1.646-1.864 2.581-0.453 0.945-0.654 1.95-0.604 3.016 0.051 1.066 0.451 2.186 1.203 3.36v0c0.666 1.041 1.553 1.903 2.662 2.587 1.109 0.684 2.197 1.258 3.265 1.722zM251.686 65.838l5.11 7.99 0.803-0.513c1.198-0.766 2.02-1.697 2.465-2.794 0.455-1.094 0.296-2.246-0.477-3.456v0c-0.766-1.198-1.868-1.927-3.304-2.188-1.441-0.267-2.973 0.054-4.597 0.961z" fill="#dee0e4" data-fill-palette-color="primary"></path><path d="M277.27 103.291l-4.05 1.374-0.542-1.598c0.221-0.359 0.379-0.752 0.475-1.178 0.103-0.428 0.068-0.894-0.102-1.398v0c-0.222-0.654-0.673-1.244-1.355-1.771-0.69-0.531-1.548-1.017-2.572-1.456v0l-11.492 3.898c-0.575 0.195-0.779 0.582-0.612 1.159v0l0.797 2.737-1.599 0.542-3.466-10.217 1.559-0.529 0.839 1.957c0.108 0.233 0.273 0.407 0.494 0.521 0.212 0.11 0.446 0.122 0.701 0.036v0l14.188-4.814-1.001-2.951 1.343-0.456 3.269 4.544 0.569 1.677-3.628 1.23c0.573 0.25 1.288 0.562 2.143 0.935 0.858 0.38 1.654 0.824 2.388 1.333 0.734 0.509 1.208 1.081 1.423 1.715v0c0.146 0.431 0.237 0.914 0.273 1.449 0.036 0.535 0.021 0.955-0.042 1.261z" fill="#dee0e4" data-fill-palette-color="primary"></path><path d="M7.545 140.919c0-2.013 1.632-3.645 3.645-3.645 2.013 0 3.645 1.632 3.645 3.645 0 2.013-1.632 3.645-3.645 3.645-2.013 0-3.645-1.632-3.645-3.645z" fill="#dee0e4" data-fill-palette-color="primary"></path><path d="M268.213 140.919c0-2.013 1.632-3.645 3.645-3.645 2.013 0 3.645 1.632 3.646 3.645 0 2.013-1.632 3.645-3.646 3.645-2.013 0-3.645-1.632-3.645-3.645z" fill="#dee0e4" data-fill-palette-color="primary"></path></g><g id="text-1"><path d="M19.5 187.115v0c-1.231 0.387-2.383 0.488-3.453 0.304-1.064-0.187-1.99-0.645-2.776-1.374-0.786-0.73-1.375-1.717-1.767-2.962v0c-0.089-0.283-0.164-0.592-0.226-0.927-0.064-0.342-0.116-0.633-0.155-0.874-0.04-0.241-0.059-0.361-0.059-0.361v0l-3.507 1.102c-0.145 0.046-0.244 0.134-0.296 0.266-0.055 0.126-0.066 0.263-0.033 0.412v0l0.289 1.44-0.909 0.285-1.8-5.729 0.909-0.285 0.502 1.079c0.123 0.323 0.34 0.436 0.649 0.339v0l13.256-4.166-0.509-1.62 0.77-0.242 1.809 2.612 0.289 0.919-1.176 0.369c0 0 0.103 0.076 0.31 0.228 0.207 0.152 0.461 0.362 0.762 0.629 0.303 0.274 0.594 0.602 0.874 0.984 0.277 0.376 0.488 0.794 0.633 1.256v0c0.257 0.817 0.251 1.64-0.016 2.468-0.268 0.829-0.769 1.584-1.503 2.264-0.739 0.688-1.694 1.216-2.867 1.584zM18.436 184.867v0c0.81-0.255 1.512-0.612 2.104-1.074 0.6-0.463 1.027-1.003 1.282-1.619 0.255-0.616 0.27-1.282 0.045-2v0c-0.124-0.395-0.299-0.756-0.525-1.083-0.234-0.332-0.448-0.597-0.641-0.797-0.195-0.206-0.293-0.31-0.293-0.31v0l-8.1 2.546c0 0 0 0.217-0.001 0.651-0.001 0.434 0.075 0.895 0.228 1.383v0c0.271 0.863 0.718 1.504 1.342 1.922 0.622 0.412 1.33 0.642 2.127 0.689 0.805 0.051 1.615-0.052 2.432-0.308z" fill="#dee0e4" data-fill-palette-color="primary"></path><path d="M29.332 195.663l-2.243 0.97-0.382-0.884c0.104-0.211 0.178-0.442 0.219-0.693 0.035-0.248-0.007-0.512-0.128-0.791v0c-0.156-0.361-0.443-0.677-0.861-0.947-0.411-0.273-0.921-0.512-1.528-0.716v0l-6.376 2.758c-0.317 0.137-0.413 0.367-0.289 0.689v0l0.579 1.521-0.884 0.382-2.45-5.664 0.865-0.374 0.571 1.085c0.07 0.128 0.169 0.217 0.296 0.267 0.13 0.057 0.264 0.055 0.403-0.006v0l7.869-3.403-0.707-1.635 0.741-0.32 2.078 2.429 0.403 0.931-2.015 0.872c0.337 0.118 0.757 0.263 1.26 0.436 0.506 0.18 0.983 0.395 1.43 0.645 0.443 0.26 0.74 0.564 0.891 0.912v0c0.104 0.241 0.177 0.514 0.219 0.819 0.048 0.303 0.061 0.541 0.039 0.717z" fill="#dee0e4" data-fill-palette-color="primary"></path><path d="M30.807 210.598v0c-1.021 0.564-2.062 0.864-3.124 0.899-1.058 0.041-2.039-0.194-2.944-0.703-0.907-0.5-1.653-1.279-2.238-2.336v0c-0.578-1.045-0.84-2.083-0.787-3.114 0.053-1.031 0.375-1.982 0.967-2.854 0.597-0.874 1.412-1.597 2.445-2.168v0c1.027-0.568 2.071-0.869 3.132-0.903 1.058-0.041 2.047 0.193 2.968 0.702 0.911 0.506 1.66 1.291 2.248 2.354v0c0.594 1.075 0.854 2.13 0.779 3.165-0.069 1.032-0.406 1.976-1.013 2.832-0.613 0.86-1.424 1.568-2.433 2.126zM29.582 208.341v0c0.785-0.434 1.463-0.943 2.032-1.526 0.569-0.583 0.947-1.206 1.132-1.868 0.189-0.657 0.105-1.308-0.252-1.954v0c-0.371-0.671-0.884-1.1-1.541-1.29-0.66-0.195-1.388-0.207-2.184-0.035-0.793 0.178-1.582 0.484-2.368 0.919v0c-0.779 0.431-1.457 0.939-2.031 1.525-0.569 0.583-0.947 1.206-1.133 1.868-0.189 0.657-0.105 1.308 0.253 1.955v0c0.367 0.665 0.879 1.091 1.536 1.28 0.66 0.195 1.388 0.207 2.184 0.035 0.796-0.172 1.587-0.475 2.372-0.909z" fill="#dee0e4" data-fill-palette-color="primary"></path><path d="M35.815 226.266l-0.783 0.562-2.263-3.155 1.069-0.767c-0.683-0.206-1.342-0.473-1.976-0.8-0.624-0.325-1.145-0.78-1.564-1.363v0c-0.483-0.673-0.756-1.356-0.82-2.049-0.066-0.684 0.025-1.351 0.27-2.004 0.25-0.646 0.604-1.249 1.062-1.806 0.458-0.558 0.973-1.042 1.545-1.452v0c0.903-0.648 1.896-1.076 2.978-1.283 1.079-0.213 2.148-0.126 3.207 0.26 1.054 0.391 1.993 1.161 2.818 2.311v0c0.229 0.32 0.448 0.69 0.656 1.11 0.208 0.42 0.349 0.723 0.422 0.908v0l3.668-2.632-1.092-1.522 0.673-0.483 2.624 2.042 0.574 0.799-13.495 9.681c-0.269 0.193-0.314 0.438-0.136 0.735v0zM34.595 222.363v0l6.823-4.895c-0.065-0.208-0.181-0.507-0.35-0.896-0.174-0.385-0.368-0.726-0.581-1.023v0c-0.712-0.993-1.647-1.52-2.804-1.582-1.161-0.067-2.35 0.335-3.568 1.209v0c-1.088 0.781-1.81 1.681-2.165 2.7-0.352 1.025-0.198 1.998 0.462 2.918v0c0.29 0.404 0.639 0.731 1.048 0.981 0.411 0.241 0.789 0.437 1.135 0.588z" fill="#dee0e4" data-fill-palette-color="primary"></path><path d="M46.738 238.334l-0.71 0.651-2.647-2.882 1.037-0.953c-0.349-0.064-0.77-0.165-1.262-0.303-0.487-0.143-0.973-0.33-1.457-0.56-0.479-0.235-0.884-0.533-1.215-0.894v0c-0.719-0.783-1.05-1.613-0.993-2.49 0.067-0.877 0.611-1.784 1.632-2.723v0l4.927-4.524-1.17-1.274 0.625-0.574 2.762 1.583 0.672 0.732-5.91 5.428c-0.646 0.593-1.028 1.187-1.146 1.784-0.123 0.591 0.112 1.209 0.706 1.854v0c0.346 0.376 0.748 0.686 1.206 0.931 0.459 0.244 0.842 0.427 1.149 0.547v0l6.086-5.589-1.177-1.281 0.625-0.575 2.748 1.568 0.686 0.747-7.824 7.186c-0.112 0.103-0.166 0.227-0.163 0.375-0.001 0.142 0.042 0.27 0.131 0.386v0z" fill="#dee0e4" data-fill-palette-color="primary"></path><path d="M57.522 246.109v0l-0.935 1.066c-0.611-0.141-1.262-0.346-1.955-0.614-0.692-0.268-1.352-0.678-1.98-1.228v0c-0.861-0.756-1.433-1.616-1.716-2.582-0.283-0.965-0.293-1.947-0.03-2.947 0.267-1.005 0.79-1.952 1.569-2.839v0c0.911-1.037 1.883-1.727 2.917-2.068 1.034-0.341 2.051-0.395 3.05-0.161 0.994 0.239 1.885 0.704 2.673 1.396v0c0.814 0.715 1.36 1.474 1.637 2.278 0.272 0.799 0.142 1.502-0.391 2.11v0c-0.314 0.358-0.665 0.532-1.052 0.523-0.392-0.014-0.726-0.141-1-0.383v0c-0.207-0.182-0.355-0.376-0.442-0.58-0.091-0.2-0.162-0.386-0.212-0.558v0l1.414-1.611c-0.14-0.416-0.326-0.727-0.559-0.932v0c-0.55-0.483-1.166-0.739-1.848-0.768-0.681-0.019-1.374 0.158-2.078 0.531-0.699 0.378-1.366 0.928-1.999 1.649v0c-0.597 0.68-1.029 1.402-1.297 2.168-0.268 0.766-0.32 1.515-0.155 2.248 0.165 0.733 0.585 1.395 1.259 1.987v0c0.431 0.378 0.904 0.67 1.422 0.876 0.512 0.202 1.082 0.348 1.708 0.439z" fill="#dee0e4" data-fill-palette-color="primary"></path><path d="M65.81 253.253v0l-0.578 0.795c0 0-0.166-0.036-0.499-0.106-0.332-0.071-0.741-0.202-1.226-0.393-0.483-0.181-0.965-0.446-1.444-0.795v0c-0.748-0.544-1.164-1.116-1.249-1.716-0.08-0.605 0.166-1.301 0.739-2.088v0l4.82-6.621-1.281-0.933 0.475-0.653 1.834 0.349 2.437-1.466 0.879 0.64-1.761 2.419 2.813 2.048-0.725 0.996-2.813-2.048-4.058 5.576c-0.577 0.792-0.849 1.448-0.817 1.966 0.023 0.52 0.302 0.975 0.838 1.366v0c0.391 0.284 0.758 0.466 1.101 0.545 0.344 0.079 0.515 0.119 0.515 0.119z" fill="#dee0e4" data-fill-palette-color="primary"></path><path d="M79.718 244.945v0c-0.22 0.351-0.533 0.578-0.941 0.681-0.407 0.103-0.786 0.045-1.137-0.175v0c-0.357-0.224-0.58-0.543-0.67-0.958-0.096-0.419-0.034-0.803 0.186-1.154v0c0.227-0.363 0.547-0.586 0.958-0.671 0.405-0.088 0.787-0.02 1.143 0.204v0c0.351 0.22 0.572 0.53 0.664 0.929 0.092 0.4 0.024 0.781-0.203 1.144zM72.819 258.327l-0.511 0.816-4.913-3.079 0.511-0.816 1.065 0.582c0.307 0.16 0.549 0.1 0.725-0.182v0l4.68-7.465-1.439-0.902 0.462-0.737 3.054 0.802 0.824 0.517-5.642 9.001c-0.081 0.129-0.103 0.261-0.067 0.398 0.031 0.133 0.104 0.244 0.219 0.333v0z" fill="#dee0e4" data-fill-palette-color="primary"></path><path d="M91.647 255.696l-0.432 0.86-1.24-0.46-8.689 7.711-1.435-0.72 1.286-11.426-1.156-0.743 0.432-0.861 4.886 2.453-0.432 0.86-1.097-0.469c-0.247-0.093-0.424-0.032-0.533 0.184v0c-0.012 0.025-0.028 0.071-0.046 0.139v0l-0.994 8.144 6.176-5.543c0.046-0.031 0.083-0.074 0.111-0.129v0c0.105-0.21 0.051-0.38-0.161-0.51v0l-0.957-0.562 0.431-0.86z" fill="#dee0e4" data-fill-palette-color="primary"></path><path d="M99.302 254.384v0c-0.153 0.385-0.421 0.665-0.803 0.84-0.382 0.175-0.765 0.186-1.149 0.032v0c-0.391-0.156-0.668-0.43-0.832-0.822-0.17-0.395-0.178-0.784-0.025-1.169v0c0.158-0.398 0.432-0.675 0.822-0.832 0.383-0.159 0.77-0.161 1.162-0.005v0c0.385 0.153 0.658 0.418 0.82 0.795 0.162 0.377 0.164 0.764 0.005 1.161zM94.921 268.789l-0.357 0.895-5.386-2.147 0.357-0.895 1.152 0.382c0.331 0.102 0.558-0.001 0.68-0.309v0l3.262-8.185-1.577-0.629 0.322-0.808 3.148 0.241 0.904 0.36-3.933 9.868c-0.056 0.141-0.054 0.276 0.006 0.404 0.054 0.126 0.146 0.222 0.275 0.288v0z" fill="#dee0e4" data-fill-palette-color="primary"></path><path d="M105.525 271.631v0l-0.294 0.938c0 0-0.169 0.019-0.507 0.059-0.338 0.039-0.767 0.046-1.286 0.02-0.516-0.017-1.057-0.114-1.623-0.291v0c-0.883-0.276-1.46-0.685-1.732-1.225-0.27-0.547-0.26-1.285 0.031-2.214v0l2.446-7.817-1.512-0.473 0.241-0.771 1.849-0.257 1.84-2.169 1.037 0.325-0.894 2.856 3.321 1.039-0.368 1.176-3.321-1.039-2.059 6.581c-0.293 0.935-0.341 1.644-0.144 2.125 0.188 0.486 0.598 0.827 1.23 1.025v0c0.461 0.144 0.867 0.199 1.218 0.164 0.351-0.035 0.526-0.052 0.527-0.052z" fill="#dee0e4" data-fill-palette-color="primary"></path><path d="M122.279 264.633l-0.198 0.942-1.297-0.125-7.011 10.32c-0.157 0.242-0.394 0.58-0.711 1.014-0.319 0.441-0.68 0.883-1.084 1.327-0.404 0.444-0.81 0.799-1.22 1.066v0c-0.352 0.229-0.72 0.388-1.105 0.476-0.385 0.088-0.781 0.089-1.186 0.004v0c-0.574-0.121-0.984-0.352-1.23-0.693-0.244-0.348-0.328-0.701-0.253-1.059v0c0.113-0.534 0.474-0.962 1.086-1.284v0l2.051 1.512c0.32-0.215 0.663-0.52 1.029-0.916 0.36-0.404 0.7-0.826 1.019-1.266 0.319-0.441 0.576-0.824 0.771-1.15v0l-1.882-11.402-1.307-0.423 0.198-0.943 5.35 1.128-0.199 0.942-1.18-0.174c-0.262-0.027-0.418 0.078-0.468 0.314v0c-0.013 0.061-0.016 0.11-0.01 0.146v0l1.305 7.714 4.369-6.518c0.037-0.042 0.062-0.093 0.075-0.154v0c0.048-0.23-0.047-0.38-0.286-0.451v0l-1.13-0.313 0.199-0.942z" fill="#dee0e4" data-fill-palette-color="primary"></path><path d="M155.937 276.299l0.028 0.962-5.527 0.161-0.028-0.962 1.033-0.103c0.344-0.038 0.511-0.222 0.502-0.553v0l-0.184-6.293c-0.022-0.766-0.199-1.372-0.529-1.818-0.331-0.446-0.91-0.657-1.738-0.633v0c-0.407 0.012-0.854 0.087-1.34 0.226-0.479 0.145-0.906 0.323-1.28 0.535v0l0.238 8.124c0.01 0.331 0.187 0.506 0.533 0.523v0l1.037 0.042 0.028 0.963-5.403 0.158-0.028-0.963 1.033-0.103c0.344-0.038 0.511-0.222 0.502-0.553v0l-0.188-6.448c-0.02-0.697-0.203-1.261-0.547-1.693-0.344-0.425-0.909-0.626-1.696-0.603v0c-0.462 0.013-0.943 0.103-1.442 0.27-0.506 0.174-0.898 0.344-1.176 0.511v0l0.236 8.104c0.01 0.331 0.191 0.505 0.544 0.522v0l1.037 0.043 0.028 0.962-5.578 0.163-0.028-0.962 1.198-0.108c0.344-0.038 0.511-0.222 0.502-0.553v0l-0.25-8.57-1.698 0.05-0.023-0.808 2.963-1.029 1.004-0.029 0.036 1.232c0.366-0.239 0.777-0.478 1.232-0.72 0.455-0.248 0.922-0.462 1.401-0.642 0.478-0.18 0.928-0.276 1.348-0.288v0c0.718-0.021 1.302 0.145 1.755 0.498 0.452 0.353 0.788 0.73 1.007 1.131v0c0.325-0.217 0.736-0.467 1.231-0.751 0.503-0.284 1.02-0.53 1.553-0.739 0.539-0.216 1.026-0.33 1.461-0.343v0c0.862-0.025 1.531 0.156 2.005 0.542 0.467 0.38 0.792 0.861 0.974 1.443 0.189 0.575 0.292 1.145 0.309 1.71v0l0.2 6.831c0.004 0.152 0.056 0.275 0.155 0.368 0.106 0.094 0.232 0.145 0.378 0.155v0z" fill="#dee0e4" data-fill-palette-color="primary"></path><path d="M169.452 272.355l0.247 1.481c-0.61 0.536-1.286 1.016-2.027 1.44-0.741 0.424-1.523 0.705-2.348 0.843v0c-0.98 0.163-1.937 0.095-2.868-0.204-0.937-0.292-1.747-0.842-2.427-1.653-0.68-0.803-1.133-1.883-1.359-3.237v0c-0.211-1.266-0.147-2.414 0.192-3.444 0.334-1.021 0.889-1.866 1.666-2.535 0.778-0.662 1.716-1.084 2.812-1.266v0c1.518-0.253 2.734 0.027 3.646 0.84 0.919 0.812 1.5 1.944 1.742 3.394v0c0.014 0.082 0.031 0.187 0.053 0.317 0.022 0.129 0.035 0.25 0.039 0.361v0l-7.895 1.316c0.103 0.62 0.271 1.225 0.503 1.817 0.232 0.591 0.546 1.113 0.943 1.564 0.389 0.446 0.871 0.775 1.445 0.987 0.575 0.219 1.255 0.263 2.038 0.133v0c0.694-0.116 1.348-0.393 1.96-0.831 0.607-0.43 1.153-0.871 1.638-1.323zM160.876 268.893l5.352-0.892-0.089-0.531c-0.134-0.803-0.44-1.445-0.919-1.925-0.472-0.481-1.113-0.654-1.924-0.519v0c-0.803 0.134-1.434 0.547-1.893 1.239-0.464 0.7-0.64 1.576-0.527 2.628z" fill="#dee0e4" data-fill-palette-color="primary"></path><path d="M184.264 270.153l0.26 0.928-3.509 0.983-0.713-1.316c0 0-0.092 0.119-0.277 0.357-0.193 0.233-0.45 0.517-0.772 0.851-0.322 0.334-0.696 0.65-1.121 0.948-0.417 0.303-0.858 0.52-1.324 0.651v0c-0.857 0.24-1.665 0.158-2.423-0.246-0.765-0.402-1.287-1.102-1.567-2.098v0c-0.125-0.445-0.161-0.88-0.107-1.304 0.053-0.424 0.271-0.875 0.652-1.355 0.377-0.471 0.991-1.005 1.842-1.602 0.846-0.588 1.999-1.27 3.459-2.045v0l-0.288-1.027c-0.438-1.562-1.394-2.136-2.87-1.722v0c-0.412 0.115-0.757 0.255-1.033 0.418-0.272 0.155-0.461 0.273-0.568 0.353v0l0.579 2.064-1.725 0.483c-0.219 0.061-0.433 0.078-0.642 0.051-0.208-0.028-0.354-0.188-0.435-0.48v0c-0.183-0.651-0.082-1.253 0.3-1.805 0.374-0.557 0.917-1.038 1.628-1.445 0.702-0.412 1.445-0.728 2.229-0.948v0c0.984-0.276 1.788-0.336 2.411-0.181 0.631 0.153 1.128 0.469 1.492 0.948 0.37 0.477 0.651 1.058 0.843 1.742v0l1.869 6.67c0.041 0.146 0.124 0.252 0.25 0.317 0.119 0.067 0.25 0.088 0.394 0.062v0zM180.067 269.91v0l-1.151-4.107c-0.989 0.564-1.762 1.067-2.319 1.51-0.557 0.443-0.954 0.841-1.192 1.194-0.229 0.358-0.356 0.688-0.379 0.988-0.017 0.299 0.016 0.594 0.097 0.887v0c0.138 0.492 0.421 0.9 0.849 1.224 0.428 0.325 0.924 0.408 1.489 0.25v0c0.319-0.089 0.632-0.238 0.94-0.447 0.309-0.201 0.589-0.419 0.838-0.654 0.25-0.235 0.452-0.435 0.606-0.6 0.148-0.163 0.222-0.245 0.222-0.245z" fill="#dee0e4" data-fill-palette-color="primary"></path><path d="M199.119 264.195l0.364 0.892-5.041 2.06-0.365-0.891 0.931-0.459c0.129-0.068 0.22-0.164 0.273-0.291 0.059-0.129 0.06-0.263 0.003-0.403v0l-2.433-5.952c-0.295-0.722-0.689-1.202-1.181-1.441-0.484-0.235-1.125-0.189-1.924 0.137v0c-0.428 0.175-0.831 0.411-1.21 0.707-0.379 0.296-0.723 0.62-1.035 0.971v0l3.067 7.505c0.125 0.307 0.356 0.406 0.693 0.298v0l0.986-0.324 0.364 0.891-5.166 2.111-0.364-0.891 1.084-0.521c0.309-0.156 0.401-0.388 0.275-0.695v0l-3.243-7.936-1.591 0.651-0.305-0.748 2.432-2.012 0.93-0.38 0.466 1.14c0.497-0.628 1.02-1.226 1.571-1.794 0.553-0.562 1.095-0.951 1.626-1.167v0c0.997-0.407 1.881-0.407 2.651 0.001 0.777 0.406 1.393 1.164 1.848 2.276v0l2.577 6.307c0.057 0.141 0.149 0.237 0.275 0.29 0.132 0.05 0.268 0.054 0.408 0.012v0z" fill="#dee0e4" data-fill-palette-color="primary"></path><path d="M208.068 256.562v0c0.57 1.073 0.648 2.11 0.235 3.112-0.417 0.995-1.275 1.838-2.573 2.527v0c-0.664 0.353-1.317 0.61-1.959 0.771-0.632 0.164-1.085 0.26-1.36 0.288v0l-1.539-2.898 1.115-0.593 1.251 1.716c0.294 0.024 0.636 0.014 1.028-0.03 0.394-0.038 0.802-0.168 1.222-0.392v0c0.628-0.334 1.02-0.765 1.177-1.293 0.157-0.529 0.12-1.01-0.109-1.443v0c-0.308-0.579-0.746-0.905-1.317-0.977-0.564-0.076-1.322-0.091-2.275-0.046v0l-0.361 0.004c-0.996 0.052-1.813-0.014-2.451-0.199-0.638-0.185-1.13-0.604-1.476-1.255v0c-0.518-0.975-0.586-1.928-0.205-2.858 0.375-0.926 1.191-1.723 2.447-2.39v0c0.64-0.34 1.241-0.585 1.802-0.735 0.561-0.15 0.979-0.231 1.254-0.244v0l1.365 2.57-1.134 0.602-0.98-1.426c-0.223-0.038-0.515-0.027-0.875 0.031-0.363 0.052-0.712 0.167-1.047 0.346v0c-0.597 0.317-0.97 0.691-1.117 1.12-0.147 0.43-0.107 0.858 0.12 1.285v0c0.259 0.488 0.641 0.781 1.147 0.88 0.506 0.099 1.331 0.114 2.475 0.045v0c0.94-0.054 1.771 0.001 2.491 0.166 0.724 0.171 1.273 0.609 1.649 1.316z" fill="#dee0e4" data-fill-palette-color="primary"></path><path d="M227.956 242.452v0c0.756 0.951 1.023 1.956 0.799 3.017-0.228 1.055-0.917 2.04-2.068 2.955v0c-0.589 0.468-1.184 0.84-1.785 1.116-0.592 0.277-1.019 0.454-1.284 0.531v0l-2.043-2.568 0.988-0.786 1.544 1.457c0.293-0.03 0.628-0.103 1.005-0.217 0.381-0.109 0.758-0.312 1.13-0.608v0c0.556-0.443 0.863-0.938 0.921-1.487 0.058-0.549-0.066-1.015-0.372-1.398v0c-0.408-0.513-0.899-0.753-1.472-0.72-0.568 0.029-1.317 0.152-2.246 0.37v0l-0.354 0.071c-0.97 0.234-1.785 0.318-2.446 0.252-0.661-0.065-1.221-0.387-1.681-0.965v0c-0.688-0.864-0.929-1.788-0.723-2.772 0.2-0.979 0.856-1.912 1.969-2.797v0c0.567-0.451 1.113-0.802 1.638-1.052 0.525-0.25 0.921-0.406 1.188-0.469v0l1.811 2.277-1.005 0.799-1.224-1.222c-0.226 0.004-0.511 0.067-0.854 0.19-0.347 0.118-0.67 0.295-0.967 0.531v0c-0.529 0.421-0.827 0.856-0.893 1.306-0.066 0.449 0.052 0.863 0.353 1.241v0c0.344 0.432 0.773 0.651 1.288 0.655 0.515 0.005 1.329-0.131 2.442-0.407v0c0.915-0.225 1.741-0.323 2.479-0.293 0.743 0.035 1.363 0.366 1.862 0.993z" fill="#dee0e4" data-fill-palette-color="primary"></path><path d="M241.377 233.081l0.676 0.686-2.788 2.747-0.988-1.003c-0.051 0.351-0.138 0.775-0.258 1.272-0.126 0.492-0.295 0.984-0.509 1.475-0.218 0.486-0.502 0.902-0.852 1.246v0c-0.757 0.746-1.575 1.106-2.453 1.08-0.878-0.036-1.804-0.548-2.778-1.537v0l-4.695-4.764-1.231 1.213-0.596-0.605 1.485-2.815 0.708-0.697 5.632 5.716c0.615 0.624 1.223 0.985 1.822 1.082 0.595 0.102 1.204-0.155 1.829-0.769v0c0.364-0.358 0.66-0.771 0.888-1.238 0.228-0.467 0.397-0.856 0.507-1.168v0l-5.799-5.886-1.239 1.221-0.596-0.605 1.47-2.801 0.723-0.712 7.456 7.568c0.107 0.108 0.233 0.158 0.379 0.149 0.142-0.004 0.269-0.052 0.382-0.143v0z" fill="#dee0e4" data-fill-palette-color="primary"></path><path d="M248.771 222.032v0l1.098 0.898c-0.12 0.615-0.302 1.274-0.545 1.975-0.244 0.701-0.63 1.375-1.159 2.022v0c-0.725 0.887-1.565 1.489-2.52 1.805-0.954 0.316-1.936 0.361-2.944 0.133-1.014-0.232-1.978-0.722-2.892-1.469v0c-1.069-0.874-1.791-1.822-2.169-2.844-0.377-1.022-0.466-2.036-0.267-3.042 0.204-1.002 0.638-1.908 1.302-2.72v0c0.686-0.839 1.426-1.411 2.219-1.716 0.789-0.3 1.496-0.194 2.122 0.317v0c0.369 0.302 0.555 0.646 0.559 1.033 0 0.392-0.116 0.73-0.347 1.014v0c-0.175 0.214-0.363 0.367-0.565 0.461-0.196 0.098-0.38 0.175-0.55 0.232v0l-1.659-1.357c-0.411 0.154-0.715 0.351-0.912 0.591v0c-0.463 0.566-0.697 1.191-0.703 1.873 0.004 0.681 0.206 1.368 0.604 2.059 0.402 0.686 0.975 1.332 1.717 1.94v0c0.7 0.572 1.437 0.979 2.212 1.221 0.775 0.241 1.525 0.267 2.252 0.076 0.727-0.191 1.374-0.633 1.942-1.328v0c0.363-0.443 0.638-0.927 0.826-1.451 0.183-0.519 0.31-1.093 0.379-1.723z" fill="#dee0e4" data-fill-palette-color="primary"></path><path d="M256.245 210.935v0l1.182 0.784c-0.058 0.624-0.173 1.297-0.346 2.019-0.173 0.722-0.49 1.431-0.951 2.128v0c-0.633 0.955-1.409 1.637-2.328 2.047-0.918 0.41-1.89 0.552-2.916 0.426-1.032-0.13-2.04-0.521-3.024-1.174v0c-1.15-0.763-1.964-1.634-2.441-2.613-0.477-0.979-0.667-1.979-0.57-3 0.103-1.017 0.444-1.962 1.024-2.836v0c0.599-0.903 1.278-1.546 2.038-1.929 0.755-0.377 1.47-0.342 2.142 0.104v0c0.397 0.263 0.617 0.587 0.66 0.972 0.039 0.39-0.042 0.738-0.244 1.043v0c-0.153 0.23-0.325 0.402-0.516 0.515-0.185 0.117-0.36 0.212-0.525 0.286v0l-1.786-1.185c-0.394 0.194-0.677 0.421-0.848 0.68v0c-0.404 0.61-0.575 1.254-0.513 1.933 0.072 0.678 0.341 1.34 0.806 1.989 0.469 0.642 1.103 1.228 1.902 1.759v0c0.754 0.5 1.528 0.831 2.323 0.994 0.795 0.163 1.544 0.113 2.248-0.149 0.704-0.262 1.304-0.767 1.8-1.515v0c0.317-0.477 0.542-0.986 0.677-1.526 0.131-0.534 0.199-1.119 0.206-1.752z" fill="#dee0e4" data-fill-palette-color="primary"></path><path d="M262.475 198.42l1.329 0.698c0.058 0.81 0.032 1.639-0.078 2.485-0.11 0.847-0.359 1.64-0.747 2.38v0c-0.462 0.88-1.094 1.601-1.895 2.162-0.799 0.571-1.727 0.882-2.784 0.935-1.051 0.056-2.184-0.235-3.401-0.874v0c-1.137-0.597-2.013-1.342-2.627-2.234-0.612-0.883-0.95-1.836-1.013-2.859-0.057-1.02 0.173-2.022 0.69-3.006v0c0.716-1.363 1.674-2.162 2.873-2.397 1.203-0.241 2.455-0.02 3.757 0.663v0c0.073 0.039 0.168 0.088 0.284 0.15 0.116 0.061 0.22 0.123 0.311 0.187v0l-3.722 7.085c0.556 0.292 1.14 0.525 1.751 0.698 0.611 0.173 1.216 0.237 1.816 0.193 0.591-0.041 1.144-0.226 1.66-0.555 0.522-0.326 0.968-0.841 1.337-1.543v0c0.327-0.623 0.502-1.311 0.523-2.064 0.024-0.744 0.003-1.445-0.064-2.104zM254.534 203.161l2.523-4.803-0.476-0.251c-0.721-0.379-1.418-0.522-2.09-0.431-0.669 0.085-1.194 0.492-1.576 1.219v0c-0.379 0.721-0.431 1.473-0.156 2.257 0.277 0.793 0.869 1.462 1.775 2.009z" fill="#dee0e4" data-fill-palette-color="primary"></path><path d="M266.164 187.342v0c1.125 0.46 1.848 1.207 2.172 2.241 0.317 1.032 0.197 2.228-0.36 3.589v0c-0.285 0.696-0.622 1.312-1.011 1.846-0.381 0.53-0.667 0.894-0.86 1.092v0l-3.039-1.242 0.478-1.169 2.06 0.517c0.241-0.17 0.498-0.397 0.77-0.681 0.279-0.281 0.509-0.642 0.689-1.083v0c0.269-0.658 0.294-1.241 0.076-1.747-0.218-0.507-0.554-0.853-1.007-1.038v0c-0.607-0.248-1.153-0.218-1.637 0.091-0.482 0.303-1.074 0.776-1.778 1.421v0l-0.275 0.235c-0.732 0.678-1.402 1.15-2.01 1.415-0.608 0.266-1.254 0.259-1.938-0.02v0c-1.022-0.418-1.684-1.106-1.986-2.064-0.304-0.952-0.188-2.086 0.35-3.403v0c0.274-0.671 0.579-1.244 0.915-1.718 0.336-0.474 0.605-0.804 0.807-0.99v0l2.693 1.101-0.485 1.188-1.666-0.468c-0.196 0.114-0.413 0.308-0.652 0.584-0.246 0.272-0.44 0.584-0.584 0.936v0c-0.256 0.626-0.303 1.151-0.141 1.575 0.162 0.424 0.467 0.728 0.915 0.911v0c0.511 0.209 0.993 0.189 1.444-0.059 0.452-0.248 1.095-0.764 1.931-1.549v0c0.688-0.643 1.361-1.133 2.02-1.467 0.665-0.332 1.368-0.347 2.109-0.044z" fill="#dee0e4" data-fill-palette-color="primary"></path><path d="M269.659 176.334v0c1.16 0.36 1.946 1.041 2.359 2.044 0.405 1 0.39 2.202-0.046 3.606v0c-0.223 0.719-0.505 1.361-0.848 1.927-0.333 0.562-0.587 0.949-0.762 1.162v0l-3.134-0.972 0.374-1.207 2.097 0.336c0.225-0.19 0.461-0.439 0.708-0.745 0.253-0.304 0.451-0.684 0.592-1.139v0c0.211-0.679 0.185-1.261-0.076-1.747-0.261-0.486-0.626-0.801-1.094-0.946v0c-0.626-0.194-1.167-0.116-1.623 0.233-0.454 0.344-1.003 0.867-1.647 1.57v0l-0.253 0.258c-0.67 0.739-1.297 1.267-1.88 1.585-0.583 0.318-1.227 0.367-1.932 0.148v0c-1.055-0.327-1.774-0.955-2.159-1.884-0.386-0.922-0.368-2.062 0.054-3.42v0c0.215-0.692 0.469-1.289 0.761-1.791 0.293-0.502 0.532-0.854 0.718-1.056v0l2.779 0.862-0.38 1.226-1.7-0.321c-0.185 0.13-0.385 0.343-0.599 0.638-0.221 0.293-0.388 0.621-0.501 0.983v0c-0.2 0.646-0.202 1.173-0.003 1.582 0.198 0.409 0.528 0.684 0.99 0.827v0c0.527 0.164 1.005 0.102 1.434-0.183 0.429-0.286 1.025-0.856 1.789-1.711v0c0.629-0.701 1.258-1.247 1.885-1.638 0.634-0.389 1.333-0.464 2.097-0.227z" fill="#dee0e4" data-fill-palette-color="primary"></path></g></svg></g></svg></g></svg></g><g></g></svg></g><defs></defs></svg><rect width="279.72" height="279.72" fill="none" stroke="none" visibility="hidden"></rect></g></svg></g></svg>